<?xml version="1.0" encoding="UTF-8"?>
<svg width="32" height="32" viewBox="0 0 32 32" fill="none" xmlns="http://www.w3.org/2000/svg">
  <!-- Gradient Definitions -->
  <defs>
    <linearGradient id="bgGradient" x1="0" y1="0" x2="32" y2="32" gradientUnits="userSpaceOnUse">
      <stop offset="0%" stop-color="#1E1E2E"/>
      <stop offset="100%" stop-color="#2D2D3D"/>
    </linearGradient>
    <linearGradient id="micGradient" x1="12" y1="6" x2="20" y2="20" gradientUnits="userSpaceOnUse">
      <stop offset="0%" stop-color="#93C5FD"/>
      <stop offset="100%" stop-color="#60A5FA"/>
    </linearGradient>
    <!-- Animation for sound waves -->
    <animate
      xlinkHref="#wave1"
      attributeName="opacity"
      values="0.6;0.9;0.6"
      dur="1.5s"
      repeatCount="indefinite"
    />
    <animate
      xlinkHref="#wave2"
      attributeName="opacity"
      values="0.9;0.6;0.9"
      dur="1.5s"
      repeatCount="indefinite"
    />
  </defs>

  <!-- Background with subtle gradient -->
  <circle cx="16" cy="16" r="16" fill="url(#bgGradient)"/>
  
  <!-- Microphone Base with gradient -->
  <path d="M16 21C18.7614 21 21 18.7614 21 16V10C21 7.23858 18.7614 5 16 5C13.2386 5 11 7.23858 11 10V16C11 18.7614 13.2386 21 16 21Z" fill="url(#micGradient)"/>
  
  <!-- Sound Waves with animation -->
  <path id="wave1" d="M8 14V16C8 20.4183 11.5817 24 16 24C20.4183 24 24 20.4183 24 16V14" 
        stroke="#FF79C6" 
        stroke-width="2" 
        stroke-linecap="round"
        opacity="0.8">
  </path>
  
  <path id="wave2" d="M10 14V16C10 19.3137 12.6863 22 16 22C19.3137 22 22 19.3137 22 16V14" 
        stroke="#FF79C6" 
        stroke-width="2" 
        stroke-linecap="round"
        opacity="0.6">
  </path>
  
  <!-- AI Dots with glow effect -->
  <circle cx="16" cy="26" r="1.5" fill="#FF79C6">
    <animate
      attributeName="opacity"
      values="1;0.6;1"
      dur="2s"
      repeatCount="indefinite"
    />
  </circle>
  <circle cx="11" cy="26" r="1.5" fill="#60A5FA">
    <animate
      attributeName="opacity"
      values="0.6;1;0.6"
      dur="2s"
      repeatCount="indefinite"
    />
  </circle>
  <circle cx="21" cy="26" r="1.5" fill="#60A5FA">
    <animate
      attributeName="opacity"
      values="0.6;1;0.6"
      dur="2s"
      repeatCount="indefinite"
      begin="0.5s"
    />
  </circle>
</svg> 